# Blender v2.92.0 OBJ File: 'blocs.blend'
# www.blender.org
mtllib placard.mtl
o placard_Cube.007
v -0.345860 0.000009 3.341108
v -0.345860 2.000009 3.341108
v -0.345860 0.000009 2.081108
v -0.345860 2.000009 2.081108
v 0.954140 2.000009 3.341108
v 0.954140 2.000009 2.081108
v -0.345860 1.900009 3.341108
v -0.345860 1.900009 2.081108
v 0.954140 1.900009 2.081108
v 0.954140 1.900009 3.341108
v 0.854140 0.169185 2.126689
v 0.854140 2.000009 2.081108
v 0.854140 0.169185 3.295527
v 0.854140 2.000009 3.341108
v 0.854140 1.854428 3.295527
v 0.854140 1.854428 2.126689
v 0.854140 1.900009 2.081108
v 0.854140 1.900009 3.341108
v 0.854140 0.000009 2.081108
v 0.854140 0.000009 3.341108
v 0.624388 1.854428 2.126689
v 0.624388 1.854428 3.295527
v 0.624388 0.169185 2.126689
v 0.624388 0.169185 3.295527
v 0.845417 0.132203 3.310054
v 0.845417 1.880685 3.310054
v 0.866032 0.132203 2.109752
v 0.866032 1.880685 2.109752
v 0.925228 0.132203 3.311425
v 0.925228 1.880685 3.311425
v 0.945843 0.132203 2.111123
v 0.945843 1.880685 2.111123
v 0.864934 0.132203 2.173673
v 0.864403 0.132203 2.204590
v 0.864403 1.880685 2.204590
v 0.864934 1.880685 2.173673
v 0.944214 0.132203 2.205961
v 0.944745 0.132203 2.175044
v 0.944745 1.880685 2.175044
v 0.944214 1.880685 2.205961
v 0.845417 1.111841 3.310054
v 0.845417 1.694668 3.310054
v 0.866032 1.694668 2.109752
v 0.866032 1.111841 2.109752
v 0.945843 1.694668 2.111123
v 0.945843 1.111841 2.111123
v 0.925228 1.694668 3.311425
v 0.925228 1.111841 3.311425
v 0.959158 1.680253 2.175291
v 0.959158 1.126255 2.175291
v 0.958627 1.680253 2.206208
v 0.958627 1.126255 2.206208
v 0.864403 1.694668 2.204590
v 0.864403 1.111841 2.204590
v 0.864934 1.694668 2.173673
v 0.864934 1.111841 2.173673
v 1.021184 1.680253 2.176357
v 1.021184 1.126255 2.176357
v 1.020653 1.680253 2.207274
v 1.020653 1.126255 2.207274
v 0.944745 1.694668 2.175044
v 0.944745 1.111841 2.175044
v 0.944214 1.694668 2.205961
v 0.944214 1.111841 2.205961
v 1.035596 1.694668 2.176604
v 1.035596 1.111841 2.176604
v 1.035065 1.694668 2.207521
v 1.035065 1.111841 2.207521
v -0.345860 1.885195 2.081108
v -0.345860 1.885195 3.341108
v 0.854140 1.885195 2.081108
v 0.854140 1.885195 3.341108
v 0.854140 1.841288 2.126689
v 0.854140 1.841288 3.295527
v 0.624388 1.841288 2.126689
v 0.624388 1.841288 3.295527
v -0.334012 1.885341 3.328668
v -0.334012 1.899863 3.328668
v 0.842292 1.899863 3.328668
v -0.334012 1.899863 2.093549
v 0.842292 1.899863 2.093549
v -0.334012 1.885341 2.093549
v 0.842292 1.885341 2.093549
v 0.842292 1.885341 3.328668
vt 0.953668 0.673380
vt 0.971649 0.673380
vt 0.971649 0.899917
vt 0.953668 0.899917
vt 0.381171 0.715940
vt 0.363191 0.715940
vt 0.363191 0.697960
vt 0.381171 0.697960
vt 0.433151 0.924507
vt 0.415170 0.924507
vt 0.415170 0.697960
vt 0.433151 0.697960
vt 0.355182 0.913719
vt 0.337201 0.913719
vt 0.337201 0.697960
vt 0.355182 0.697960
vt 0.407161 0.924516
vt 0.389181 0.924516
vt 0.389181 0.697960
vt 0.407161 0.697960
vt 0.462329 0.889148
vt 0.462329 0.673380
vt 0.688885 0.673380
vt 0.688885 0.889148
vt 0.912661 0.899936
vt 0.696894 0.899936
vt 0.699024 0.897699
vt 0.910531 0.897699
vt 0.238561 0.908125
vt 0.238561 0.697960
vt 0.279872 0.697960
vt 0.279872 0.908125
vt 0.698667 0.662009
vt 0.698667 0.664673
vt 0.696459 0.664647
vt 0.696459 0.662035
vt 0.219772 0.676044
vt 0.219772 0.902600
vt 0.217642 0.900363
vt 0.217642 0.678281
vt 0.462329 0.907128
vt 0.688885 0.907128
vt 0.696874 0.004005
vt 0.912642 0.004005
vt 0.912642 0.230561
vt 0.696874 0.230561
vt 0.355182 0.931699
vt 0.337201 0.931699
vt 0.381171 0.931699
vt 0.363191 0.931699
vt 0.012200 0.337441
vt 0.222356 0.337441
vt 0.230552 0.345637
vt 0.004005 0.345637
vt 0.222356 0.335078
vt 0.222356 0.034423
vt 0.230552 0.004005
vt 0.230552 0.342973
vt 0.012200 0.335078
vt 0.004005 0.342973
vt 0.012200 0.034423
vt 0.004005 0.004005
vt 0.686185 0.651637
vt 0.686185 0.350982
vt 0.896340 0.350982
vt 0.896340 0.651637
vt 0.961960 0.304660
vt 0.961960 0.307022
vt 0.920651 0.307022
vt 0.920651 0.304660
vt 0.904350 0.651637
vt 0.904350 0.350982
vt 0.945659 0.350982
vt 0.945659 0.651637
vt 0.329192 0.697960
vt 0.329192 0.908125
vt 0.287881 0.908125
vt 0.287881 0.697960
vt 0.015500 0.634588
vt 0.015500 0.668035
vt 0.004005 0.668035
vt 0.004005 0.634588
vt 0.945659 0.942951
vt 0.945659 0.976398
vt 0.931307 0.976398
vt 0.931307 0.942951
vt 0.661121 0.631924
vt 0.661121 0.665371
vt 0.462328 0.665371
vt 0.462328 0.631924
vt 0.968020 0.631924
vt 0.968020 0.665371
vt 0.953668 0.665371
vt 0.953668 0.631924
vt 0.969969 0.021060
vt 0.984322 0.021060
vt 0.984322 0.219858
vt 0.969969 0.219858
vt 0.990382 0.549781
vt 0.976030 0.549781
vt 0.976030 0.350982
vt 0.990382 0.350982
vt 0.990382 0.566836
vt 0.976030 0.566836
vt 0.976030 0.555341
vt 0.990382 0.555341
vt 0.969969 0.004005
vt 0.984322 0.004005
vt 0.984322 0.015500
vt 0.969969 0.015500
vt 0.678175 0.631924
vt 0.678175 0.665371
vt 0.666681 0.665371
vt 0.666681 0.631924
vt 0.219857 0.634588
vt 0.219857 0.668035
vt 0.021059 0.668035
vt 0.021059 0.634588
vt 0.021059 0.353646
vt 0.021059 0.529791
vt 0.015500 0.529791
vt 0.015500 0.353646
vt 0.219857 0.353646
vt 0.219857 0.529791
vt 0.666681 0.350982
vt 0.666681 0.527128
vt 0.661121 0.527128
vt 0.661121 0.350982
vt 0.729572 0.254908
vt 0.724012 0.254908
vt 0.724012 0.238570
vt 0.729572 0.238570
vt 0.678175 0.350982
vt 0.678175 0.527128
vt 0.968020 0.350982
vt 0.968020 0.527128
vt 0.953668 0.527128
vt 0.953668 0.350982
vt 0.462328 0.527128
vt 0.462328 0.350982
vt 0.945659 0.662009
vt 0.945659 0.838154
vt 0.931307 0.838154
vt 0.931307 0.662009
vt 0.004005 0.529791
vt 0.004005 0.353646
vt 0.985218 0.786185
vt 0.985218 0.890982
vt 0.979658 0.890982
vt 0.979658 0.786185
vt 0.716003 0.238570
vt 0.716003 0.338182
vt 0.710443 0.338182
vt 0.710443 0.238570
vt 0.729572 0.317582
vt 0.724012 0.317582
vt 0.724012 0.306428
vt 0.729572 0.306428
vt 0.729572 0.279255
vt 0.724012 0.279255
vt 0.724012 0.262917
vt 0.729572 0.262917
vt 0.983715 0.330072
vt 0.983715 0.230460
vt 0.986307 0.227868
vt 0.986307 0.332664
vt 0.982250 0.675972
vt 0.982250 0.775584
vt 0.979658 0.778176
vt 0.979658 0.673380
vt 0.972561 0.230460
vt 0.972561 0.330072
vt 0.969969 0.332664
vt 0.969969 0.227868
vt 0.993404 0.775584
vt 0.993404 0.675972
vt 0.995995 0.673380
vt 0.995995 0.778176
vt 0.729572 0.287264
vt 0.729572 0.298419
vt 0.724012 0.298419
vt 0.724012 0.287264
vt 0.696874 0.238570
vt 0.702434 0.238570
vt 0.702434 0.338182
vt 0.696874 0.338182
vt 0.904350 0.654000
vt 0.945659 0.654000
vt 0.961960 0.004005
vt 0.920651 0.004005
vt 0.686185 0.654000
vt 0.896340 0.654000
vt 0.688865 0.004005
vt 0.688865 0.342973
vt 0.473106 0.342973
vt 0.473106 0.004005
vt 0.465097 0.004005
vt 0.465097 0.342973
vt 0.238561 0.342973
vt 0.238561 0.004005
vt 0.454319 0.350982
vt 0.454319 0.689951
vt 0.238561 0.689951
vt 0.238561 0.350982
vt 0.443771 0.909458
vt 0.441160 0.909458
vt 0.441160 0.697960
vt 0.443771 0.697960
vt 0.230477 0.575709
vt 0.227866 0.575709
vt 0.227866 0.353646
vt 0.230477 0.353646
vt 0.230477 0.795216
vt 0.227866 0.795216
vt 0.227866 0.583718
vt 0.230477 0.583718
vt 0.696894 0.673380
vt 0.912661 0.673380
vt 0.910531 0.675617
vt 0.699024 0.675617
vt 0.004005 0.902600
vt 0.006135 0.900363
vt 0.004005 0.676044
vt 0.006135 0.678281
vt 0.688449 0.662009
vt 0.688449 0.664673
vt 0.686185 0.664647
vt 0.686185 0.662035
vn -1.0000 0.0000 0.0000
vn 0.0000 0.0000 -1.0000
vn 1.0000 0.0000 0.0000
vn 0.0000 0.0000 1.0000
vn 0.0000 -1.0000 0.0000
vn 0.0000 1.0000 0.0000
vn 0.0000 -0.9999 0.0118
vn -0.7241 0.0000 0.6896
vn -0.0123 0.9999 0.0000
vn -0.9999 0.0000 -0.0172
vn 0.0172 0.0000 -0.9999
vn 0.9999 0.0000 0.0172
vn -0.0172 0.0000 0.9999
vn 0.0000 -0.9999 -0.0118
vn 0.0000 0.9999 0.0117
vn -0.0123 -0.9999 0.0000
vn 0.0000 0.9999 -0.0117
vn -0.7241 0.0000 -0.6897
usemtl placardFull
s off
f 7/1/1 2/2/1 4/3/1 8/4/1
f 17/5/2 12/6/2 6/7/2 9/8/2
f 9/9/3 6/10/3 5/11/3 10/12/3
f 18/13/4 14/14/4 2/15/4 7/16/4
f 10/17/5 18/18/5 17/19/5 9/20/5
f 12/21/6 4/22/6 2/23/6 14/24/6
f 18/25/7 7/26/7 78/27/7 79/28/7
f 13/29/6 11/30/6 23/31/6 24/32/6
f 72/33/8 18/34/8 79/35/8 84/36/8
f 69/37/9 70/38/9 77/39/9 82/40/9
f 6/41/6 12/21/6 14/24/6 5/42/6
f 3/43/5 19/44/5 20/45/5 1/46/5
f 10/47/4 5/48/4 14/14/4 18/13/4
f 8/49/2 4/50/2 12/6/2 17/5/2
f 15/51/3 16/52/3 17/53/3 18/54/3
f 73/55/3 11/56/3 19/57/3 71/58/3
f 74/59/3 15/51/3 18/54/3 72/60/3
f 11/56/3 13/61/3 20/62/3 19/57/3
f 76/63/3 24/64/3 23/65/3 75/66/3
f 73/67/4 16/68/4 21/69/4 75/70/4
f 74/71/2 13/72/2 24/73/2 76/74/2
f 16/75/5 15/76/5 22/77/5 21/78/5
f 55/79/10 36/80/10 28/81/10 43/82/10
f 43/83/11 28/84/11 32/85/11 45/86/11
f 63/87/12 40/88/12 30/89/12 47/90/12
f 47/91/13 30/92/13 26/93/13 42/94/13
f 34/95/5 37/96/5 29/97/5 25/98/5
f 40/99/6 35/100/6 26/101/6 30/102/6
f 32/103/6 28/104/6 36/105/6 39/106/6
f 39/106/6 36/105/6 35/100/6 40/99/6
f 27/107/5 31/108/5 38/109/5 33/110/5
f 33/110/5 38/109/5 37/96/5 34/95/5
f 45/111/12 32/112/12 39/113/12 61/114/12
f 61/114/12 39/113/12 40/88/12 63/87/12
f 42/115/10 26/116/10 35/117/10 53/118/10
f 53/118/10 35/117/10 36/80/10 55/79/10
f 34/119/10 54/120/10 56/121/10 33/122/10
f 54/120/10 53/118/10 55/79/10 56/121/10
f 25/123/10 41/124/10 54/120/10 34/119/10
f 41/124/10 42/115/10 53/118/10 54/120/10
f 38/125/12 62/126/12 64/127/12 37/128/12
f 61/129/6 63/130/6 67/131/6 65/132/6
f 31/133/12 46/134/12 62/126/12 38/125/12
f 46/134/12 45/111/12 61/114/12 62/126/12
f 29/135/13 48/136/13 41/137/13 25/138/13
f 48/136/13 47/91/13 42/94/13 41/137/13
f 37/128/12 64/127/12 48/139/12 29/140/12
f 64/127/12 63/87/12 47/90/12 48/139/12
f 27/141/11 44/142/11 46/143/11 31/144/11
f 44/142/11 43/83/11 45/86/11 46/143/11
f 33/122/10 56/121/10 44/145/10 27/146/10
f 56/121/10 55/79/10 43/82/10 44/145/10
f 66/147/12 65/148/12 67/149/12 68/150/12
f 50/151/12 49/152/12 51/153/12 52/154/12
f 51/155/5 49/156/5 57/157/5 59/158/5
f 64/159/5 62/160/5 66/161/5 68/162/5
f 49/163/11 50/164/11 62/165/11 61/166/11
f 52/167/13 51/168/13 63/169/13 64/170/13
f 58/171/11 57/172/11 65/173/11 66/174/11
f 59/175/13 60/176/13 68/177/13 67/178/13
f 51/168/13 59/175/13 67/178/13 63/169/13
f 57/172/11 49/163/11 61/166/11 65/173/11
f 60/176/13 52/167/13 64/170/13 68/177/13
f 50/164/11 58/171/11 66/174/11 62/165/11
f 52/179/6 60/180/6 58/181/6 50/182/6
f 58/183/10 60/184/10 59/185/10 57/186/10
f 15/187/2 74/71/2 76/74/2 22/188/2
f 11/189/4 73/67/4 75/70/4 23/190/4
f 22/191/3 76/63/3 75/66/3 21/192/3
f 13/61/3 74/59/3 72/60/3 20/62/3
f 16/52/3 73/55/3 71/58/3 17/53/3
f 3/193/2 69/194/2 71/195/2 19/196/2
f 1/197/1 70/198/1 69/199/1 3/200/1
f 20/201/4 72/202/4 70/203/4 1/204/4
f 84/205/4 79/206/4 78/207/4 77/208/4
f 77/209/1 78/210/1 80/211/1 82/212/1
f 82/213/2 80/214/2 81/215/2 83/216/2
f 8/217/14 17/218/14 81/219/14 80/220/14
f 70/38/15 72/221/15 84/222/15 77/39/15
f 7/26/16 8/217/16 80/220/16 78/27/16
f 71/223/17 69/37/17 82/40/17 83/224/17
f 17/225/18 71/226/18 83/227/18 81/228/18
